<?xml version="1.0" encoding="UTF-8" standalone="no"?> <!-- Created with Vectornator for iOS (http://vectornator.io/) --><!DOCTYPE svg PUBLIC "-//W3C//DTD SVG 1.1//EN" "http://www.w3.org/Graphics/SVG/1.1/DTD/svg11.dtd">
<svg height="100%" style="fill-rule:nonzero;clip-rule:evenodd;stroke-linecap:round;stroke-linejoin:round;" xmlns:xlink="http://www.w3.org/1999/xlink" xmlns="http://www.w3.org/2000/svg" xml:space="preserve" width="100%" xmlns:vectornator="http://vectornator.io" version="1.1" viewBox="0 0 200 42">
<metadata>
<vectornator:setting key="DimensionsVisible" value="1"/>
<vectornator:setting key="PencilOnly" value="0"/>
<vectornator:setting key="SnapToPoints" value="0"/>
<vectornator:setting key="OutlineMode" value="0"/>
<vectornator:setting key="CMYKEnabledKey" value="0"/>
<vectornator:setting key="RulersVisible" value="1"/>
<vectornator:setting key="SnapToEdges" value="0"/>
<vectornator:setting key="GuidesVisible" value="1"/>
<vectornator:setting key="DisplayWhiteBackground" value="0"/>
<vectornator:setting key="doHistoryDisabled" value="0"/>
<vectornator:setting key="SnapToGuides" value="1"/>
<vectornator:setting key="TimeLapseWatermarkDisabled" value="0"/>
<vectornator:setting key="Units" value="Pixels"/>
<vectornator:setting key="DynamicGuides" value="0"/>
<vectornator:setting key="IsolateActiveLayer" value="0"/>
<vectornator:setting key="SnapToGrid" value="0"/>
</metadata>
<defs/>
<g id="レイヤー 1" vectornator:layerName="レイヤー 1">
<g opacity="1">
<path d="M5.73143+29.598L10.3906+29.598L10.3906+23.3012L16.7002+11.2787L11.749+11.2787L8.10545+18.8959L8.01659+18.8959L4.37303+11.2787L-0.57814+11.2787L5.73143+23.3012L5.73143+29.598Z" opacity="1" fill="#000000"/>
<path d="M21.8037+29.89C26.1582+29.89+28.875+27.2621+28.875+22.6918L28.875+22.6664C28.875+18.1596+26.1074+15.4809+21.8037+15.4809C17.5127+15.4809+14.7324+18.185+14.7324+22.6664L14.7324+22.6918C14.7324+27.2494+17.4238+29.89+21.8037+29.89ZM21.8164+26.475C20.2549+26.475+19.3027+25.1293+19.3027+22.6918L19.3027+22.6664C19.3027+20.2797+20.2803+18.8959+21.8037+18.8959C23.3271+18.8959+24.3174+20.2797+24.3174+22.6664L24.3174+22.6918C24.3174+25.1166+23.3525+26.475+21.8164+26.475Z" opacity="1" fill="#000000"/>
<path d="M30.7158+29.598L35.2099+29.598L35.2099+25.3451L36.0224+24.3676L39.3867+29.598L44.5664+29.598L39.3994+21.6889L44.2744+15.7728L39.2598+15.7728L35.2988+21.016L35.2099+21.016L35.2099+11.2787L30.7158+11.2787L30.7158+29.598Z" opacity="1" fill="#000000"/>
<path d="M51.333+29.89C55.6875+29.89+58.4043+27.2621+58.4043+22.6918L58.4043+22.6664C58.4043+18.1596+55.6367+15.4809+51.333+15.4809C47.042+15.4809+44.2617+18.185+44.2617+22.6664L44.2617+22.6918C44.2617+27.2494+46.9531+29.89+51.333+29.89ZM51.3457+26.475C49.7842+26.475+48.832+25.1293+48.832+22.6918L48.832+22.6664C48.832+20.2797+49.8096+18.8959+51.333+18.8959C52.8564+18.8959+53.8467+20.2797+53.8467+22.6664L53.8467+22.6918C53.8467+25.1166+52.8818+26.475+51.3457+26.475Z" opacity="1" fill="#000000"/>
<path d="M60.2197+29.598L64.7265+29.598L64.7265+21.765C64.7265+20.2416+65.6152+19.1498+67.0371+19.1498C68.5224+19.1498+69.3096+20.14+69.3096+21.7777L69.3096+29.598L73.8164+29.598L73.8164+20.8129C73.8164+17.4867+72.039+15.4809+69.0176+15.4809C66.9355+15.4809+65.501+16.4584+64.8154+18.2611L64.7265+18.2611L64.7265+11.2787L60.2197+11.2787L60.2197+29.598Z" opacity="1" fill="#000000"/>
<path d="M80.1006+29.7885C81.9033+29.7885+83.2744+29.0014+84.0615+27.643L84.1504+27.643L84.1504+29.598L88.6445+29.598L88.6445+20.1654C88.6445+17.3598+86.1943+15.4809+82.4746+15.4809C78.6279+15.4809+76.3301+17.3217+76.1142+20.0131L76.1015+20.1781L80.1514+20.1781L80.1767+20.0512C80.3291+19.3402+81.04+18.7816+82.2461+18.7816C83.5029+18.7816+84.1504+19.4037+84.1504+20.4066L84.1504+21.0922L81.0019+21.2953C77.4346+21.5365+75.4287+22.9965+75.4287+25.599L75.4287+25.6117C75.4287+28.0238+77.3203+29.7885+80.1006+29.7885ZM79.8467+25.3197L79.8467+25.307C79.8467+24.4818+80.4687+23.9613+81.7256+23.8852L84.1504+23.7201L84.1504+24.6469C84.1504+25.8148+83.1221+26.6781+81.6748+26.6781C80.5703+26.6781+79.8467+26.183+79.8467+25.3197Z" opacity="1" fill="#000000"/>
<path d="M90.79+29.598L95.2969+29.598L95.2969+21.4223C95.2969+20.0512+96.084+19.1498+97.3027+19.1498C98.5342+19.1498+99.2197+19.9115+99.2197+21.308L99.2197+29.598L103.523+29.598L103.523+21.3969C103.523+20.0258+104.285+19.1498+105.504+19.1498C106.773+19.1498+107.446+19.8988+107.446+21.3461L107.446+29.598L111.953+29.598L111.953+20.1908C111.953+17.3852+110.112+15.4809+107.408+15.4809C105.352+15.4809+103.676+16.6488+103.143+18.4389L103.054+18.4389C102.66+16.56+101.251+15.4809+99.2832+15.4809C97.3916+15.4809+95.9189+16.5727+95.3857+18.2611L95.2969+18.2611L95.2969+15.7728L90.79+15.7728L90.79+29.598Z" opacity="1" fill="#000000"/>
<path d="M118.212+29.7885C120.015+29.7885+121.386+29.0014+122.173+27.643L122.262+27.643L122.262+29.598L126.756+29.598L126.756+20.1654C126.756+17.3598+124.306+15.4809+120.586+15.4809C116.739+15.4809+114.441+17.3217+114.226+20.0131L114.213+20.1781L118.263+20.1781L118.288+20.0512C118.44+19.3402+119.151+18.7816+120.357+18.7816C121.614+18.7816+122.262+19.4037+122.262+20.4066L122.262+21.0922L119.113+21.2953C115.546+21.5365+113.54+22.9965+113.54+25.599L113.54+25.6117C113.54+28.0238+115.432+29.7885+118.212+29.7885ZM117.958+25.3197L117.958+25.307C117.958+24.4818+118.58+23.9613+119.837+23.8852L122.262+23.7201L122.262+24.6469C122.262+25.8148+121.233+26.6781+119.786+26.6781C118.682+26.6781+117.958+26.183+117.958+25.3197Z" opacity="1" fill="#000000"/>
<path d="M129.498+24.0756L137.775+24.0756L137.775+20.2162L129.498+20.2162L129.498+24.0756Z" opacity="1" fill="#000000"/>
<path d="M149.379+29.9281C154.597+29.9281+157.694+26.8685+157.694+21.8539L157.694+19.556L149.531+19.556L149.531+22.8568L153.2+22.8568L153.187+23.0853C153.035+24.9262+151.588+26.0687+149.48+26.0687C146.802+26.0687+145.075+23.9867+145.075+20.3559L145.075+20.3432C145.075+16.7885+146.637+14.808+149.277+14.808C151.067+14.808+152.375+15.684+152.857+17.1693L152.895+17.2963L157.504+17.2963L157.479+17.1439C156.996+13.5893+153.759+10.9486+149.265+10.9486C143.742+10.9486+140.327+14.4525+140.327+20.3939L140.327+20.4066C140.327+26.4369+143.729+29.9281+149.379+29.9281Z" opacity="1" fill="#000000"/>
<path d="M160.297+24.0756L168.574+24.0756L168.574+20.2162L160.297+20.2162L160.297+24.0756Z" opacity="1" fill="#000000"/>
<path d="M175.976+29.598L180.609+29.598L180.609+11.2787L175.963+11.2787L171.304+14.4525L171.304+18.4389L175.887+15.3666L175.976+15.3666L175.976+29.598Z" opacity="1" fill="#000000"/>
<path d="M192.111+29.9281C196.986+29.9281+199.957+26.2846+199.957+20.4447L199.957+20.4193C199.957+14.5795+196.986+10.9486+192.111+10.9486C187.236+10.9486+184.253+14.5795+184.253+20.4193L184.253+20.4447C184.253+26.2846+187.236+29.9281+192.111+29.9281ZM192.111+26.2846C190.093+26.2846+188.963+24.1644+188.963+20.4447L188.963+20.4193C188.963+16.6996+190.093+14.5922+192.111+14.5922C194.13+14.5922+195.247+16.6996+195.247+20.4193L195.247+20.4447C195.247+24.1644+194.13+26.2846+192.111+26.2846Z" opacity="1" fill="#000000"/>
</g>
</g>
</svg>
